<mxfile host="65bd71144e">
    <diagram id="LDXEB6UXGNaZxqu3erO6" name="Page-1">
        <mxGraphModel dx="1650" dy="1786" grid="1" gridSize="10" guides="1" tooltips="1" connect="1" arrows="1" fold="1" page="1" pageScale="1" pageWidth="827" pageHeight="1169" math="0" shadow="0">
            <root>
                <mxCell id="0"/>
                <mxCell id="1" parent="0"/>
                <mxCell id="2" value="" style="rounded=0;whiteSpace=wrap;html=1;fillColor=#f5f5f5;fontColor=#333333;strokeColor=#666666;" vertex="1" parent="1">
                    <mxGeometry x="-750" y="-1156" width="670" height="716" as="geometry"/>
                </mxCell>
                <mxCell id="3" value="" style="rounded=0;whiteSpace=wrap;html=1;" vertex="1" parent="1">
                    <mxGeometry x="-661" y="-1036" width="501" height="560" as="geometry"/>
                </mxCell>
                <mxCell id="4" value="SECRETAIRE" style="shape=umlActor;verticalLabelPosition=bottom;verticalAlign=top;html=1;fillColor=#f8cecc;gradientColor=#ea6b66;strokeColor=#b85450;" vertex="1" parent="1">
                    <mxGeometry x="-730" y="-874.5" width="40" height="70" as="geometry"/>
                </mxCell>
                <mxCell id="5" value="Gestion des Vehicule" style="ellipse;whiteSpace=wrap;html=1;fillColor=#d5e8d4;strokeColor=#82b366;" vertex="1" parent="1">
                    <mxGeometry x="-601" y="-864.5" width="140" height="50" as="geometry"/>
                </mxCell>
                <mxCell id="6" value="AJOUTER UN VEHICULE" style="ellipse;whiteSpace=wrap;html=1;fillColor=#dae8fc;strokeColor=#6c8ebf;direction=east;" vertex="1" parent="1">
                    <mxGeometry x="-376.5" y="-1010" width="151" height="50" as="geometry"/>
                </mxCell>
                <mxCell id="7" value="AJOUTER UN VEHICULE A UNE SEANCE" style="ellipse;whiteSpace=wrap;html=1;fillColor=#dae8fc;strokeColor=#6c8ebf;" vertex="1" parent="1">
                    <mxGeometry x="-376.5" y="-720" width="166.5" height="50" as="geometry"/>
                </mxCell>
                <mxCell id="8" value="SUPPRIMER UN VEHICULE" style="ellipse;whiteSpace=wrap;html=1;fillColor=#dae8fc;strokeColor=#6c8ebf;direction=east;" vertex="1" parent="1">
                    <mxGeometry x="-382" y="-867" width="162" height="55" as="geometry"/>
                </mxCell>
                <mxCell id="9" value="" style="endArrow=classic;html=1;entryX=1;entryY=0.5;entryDx=0;entryDy=0;exitX=0;exitY=0.5;exitDx=0;exitDy=0;" edge="1" parent="1" source="8" target="5">
                    <mxGeometry width="50" height="50" relative="1" as="geometry">
                        <mxPoint x="-521" y="-826" as="sourcePoint"/>
                        <mxPoint x="-471" y="-876" as="targetPoint"/>
                    </mxGeometry>
                </mxCell>
                <mxCell id="10" value="" style="endArrow=none;html=1;entryX=0;entryY=0.5;entryDx=0;entryDy=0;" edge="1" parent="1" target="6">
                    <mxGeometry width="50" height="50" relative="1" as="geometry">
                        <mxPoint x="-420" y="-840" as="sourcePoint"/>
                        <mxPoint x="-421" y="-996" as="targetPoint"/>
                    </mxGeometry>
                </mxCell>
                <mxCell id="11" value="" style="endArrow=none;html=1;exitX=0;exitY=0.5;exitDx=0;exitDy=0;" edge="1" parent="1" source="7">
                    <mxGeometry width="50" height="50" relative="1" as="geometry">
                        <mxPoint x="-371" y="-906" as="sourcePoint"/>
                        <mxPoint x="-420" y="-840" as="targetPoint"/>
                    </mxGeometry>
                </mxCell>
                <mxCell id="12" value="" style="endArrow=none;html=1;exitX=0.5;exitY=0.5;exitDx=0;exitDy=0;exitPerimeter=0;entryX=0;entryY=0.5;entryDx=0;entryDy=0;" edge="1" parent="1" source="4" target="5">
                    <mxGeometry width="50" height="50" relative="1" as="geometry">
                        <mxPoint x="-521" y="-786" as="sourcePoint"/>
                        <mxPoint x="-471" y="-836" as="targetPoint"/>
                    </mxGeometry>
                </mxCell>
                <mxCell id="13" value="S'AUTHENTIFIE" style="ellipse;whiteSpace=wrap;html=1;fillColor=#ffe6cc;strokeColor=#d79b00;" vertex="1" parent="1">
                    <mxGeometry x="-611" y="-660" width="160" height="50" as="geometry"/>
                </mxCell>
                <mxCell id="14" value="&amp;lt;&amp;lt;include&amp;gt;&amp;gt;" style="html=1;verticalAlign=bottom;labelBackgroundColor=none;endArrow=open;endFill=0;dashed=1;exitX=0.5;exitY=1;exitDx=0;exitDy=0;entryX=0.5;entryY=0;entryDx=0;entryDy=0;" edge="1" parent="1" source="5" target="13">
                    <mxGeometry width="160" relative="1" as="geometry">
                        <mxPoint x="-581" y="-836" as="sourcePoint"/>
                        <mxPoint x="-421" y="-836" as="targetPoint"/>
                    </mxGeometry>
                </mxCell>
                <mxCell id="19" value="DIAGRAMME CAS D'UTILISATION :&lt;br&gt;GESTION DES VOITURES" style="rounded=0;whiteSpace=wrap;html=1;fillColor=#f5f5f5;gradientColor=#b3b3b3;strokeColor=#666666;" vertex="1" parent="1">
                    <mxGeometry x="-661" y="-1126" width="310" height="60" as="geometry"/>
                </mxCell>
                <mxCell id="22" value="REPARER UN VEHICULE" style="ellipse;whiteSpace=wrap;html=1;fillColor=#dae8fc;strokeColor=#6c8ebf;" vertex="1" parent="1">
                    <mxGeometry x="-376.5" y="-790" width="151" height="50" as="geometry"/>
                </mxCell>
                <mxCell id="23" value="" style="endArrow=none;html=1;exitX=0.011;exitY=0.381;exitDx=0;exitDy=0;exitPerimeter=0;" edge="1" parent="1" source="22">
                    <mxGeometry width="50" height="50" relative="1" as="geometry">
                        <mxPoint x="-371" y="-980" as="sourcePoint"/>
                        <mxPoint x="-420" y="-840" as="targetPoint"/>
                    </mxGeometry>
                </mxCell>
                <mxCell id="24" value="MODIFIE UN VEHICULE" style="ellipse;whiteSpace=wrap;html=1;fillColor=#dae8fc;strokeColor=#6c8ebf;direction=east;" vertex="1" parent="1">
                    <mxGeometry x="-376.5" y="-940" width="151" height="50" as="geometry"/>
                </mxCell>
                <mxCell id="25" value="" style="endArrow=none;html=1;entryX=0;entryY=0.5;entryDx=0;entryDy=0;" edge="1" parent="1" target="24">
                    <mxGeometry width="50" height="50" relative="1" as="geometry">
                        <mxPoint x="-420" y="-840" as="sourcePoint"/>
                        <mxPoint x="-470" y="-960" as="targetPoint"/>
                    </mxGeometry>
                </mxCell>
                <mxCell id="26" value="CONSULTE L'ETAT DU VEHICULE" style="ellipse;whiteSpace=wrap;html=1;fillColor=#dae8fc;strokeColor=#6c8ebf;" vertex="1" parent="1">
                    <mxGeometry x="-376.5" y="-650" width="166.5" height="50" as="geometry"/>
                </mxCell>
                <mxCell id="27" value="" style="endArrow=none;html=1;entryX=0;entryY=0.5;entryDx=0;entryDy=0;" edge="1" parent="1" target="26">
                    <mxGeometry width="50" height="50" relative="1" as="geometry">
                        <mxPoint x="-420" y="-840" as="sourcePoint"/>
                        <mxPoint x="-450" y="-540" as="targetPoint"/>
                    </mxGeometry>
                </mxCell>
            </root>
        </mxGraphModel>
    </diagram>
</mxfile>